<mxfile host="app.diagrams.net" modified="2021-05-17T03:41:23.784Z" agent="5.0 (Macintosh; Intel Mac OS X 10_15_7) AppleWebKit/537.36 (KHTML, like Gecko) Chrome/90.0.4430.212 Safari/537.36" etag="5agxw9_w5obnYpk73O2P" version="14.4.3" type="github">
  <diagram id="3D0DHYD3XwMjB1Ubeow9" name="Page-1">
    <mxGraphModel dx="749" dy="1628" grid="1" gridSize="10" guides="1" tooltips="1" connect="1" arrows="1" fold="1" page="1" pageScale="1" pageWidth="827" pageHeight="1169" math="0" shadow="0">
      <root>
        <mxCell id="0" />
        <mxCell id="1" parent="0" />
        <mxCell id="NpCSV3PL6PeHgmUgio19-1" value="" style="ellipse;whiteSpace=wrap;html=1;aspect=fixed;fillColor=#FFB366;" vertex="1" parent="1">
          <mxGeometry x="340" y="200" width="80" height="80" as="geometry" />
        </mxCell>
        <mxCell id="NpCSV3PL6PeHgmUgio19-2" value="" style="rhombus;whiteSpace=wrap;html=1;" vertex="1" parent="1">
          <mxGeometry x="140" y="60" width="80" height="80" as="geometry" />
        </mxCell>
        <mxCell id="NpCSV3PL6PeHgmUgio19-3" value="" style="shape=flexArrow;endArrow=classic;html=1;endWidth=280;endSize=26.2;" edge="1" parent="1">
          <mxGeometry width="50" height="50" relative="1" as="geometry">
            <mxPoint x="480" y="250" as="sourcePoint" />
            <mxPoint x="470" y="120" as="targetPoint" />
            <Array as="points">
              <mxPoint x="650" y="140" />
            </Array>
          </mxGeometry>
        </mxCell>
        <mxCell id="NpCSV3PL6PeHgmUgio19-4" value="" style="shape=dataStorage;whiteSpace=wrap;html=1;fixedSize=1;fillColor=#B3FF66;" vertex="1" parent="1">
          <mxGeometry x="90" y="350" width="100" height="80" as="geometry" />
        </mxCell>
      </root>
    </mxGraphModel>
  </diagram>
</mxfile>
